<svg width="25" height="24" viewBox="0 0 25 24" fill="none" xmlns="http://www.w3.org/2000/svg">
<path d="M12.5001 22C18.0001 22 22.5001 17.5 22.5001 12C22.5001 6.5 18.0001 2 12.5001 2C7.00012 2 2.50012 6.5 2.50012 12C2.50012 17.5 7.00012 22 12.5001 22Z" stroke="#47FB59" stroke-width="1.5" stroke-linecap="round" stroke-linejoin="round"/>
<path d="M12.5001 22C18.0001 22 22.5001 17.5 22.5001 12C22.5001 6.5 18.0001 2 12.5001 2C7.00012 2 2.50012 6.5 2.50012 12C2.50012 17.5 7.00012 22 12.5001 22Z" stroke="black" stroke-opacity="0.2" stroke-width="1.5" stroke-linecap="round" stroke-linejoin="round"/>
<path d="M8.25012 12L11.0801 14.83L16.7501 9.17004" stroke="#47FB59" stroke-width="1.5" stroke-linecap="round" stroke-linejoin="round"/>
<path d="M8.25012 12L11.0801 14.83L16.7501 9.17004" stroke="black" stroke-opacity="0.2" stroke-width="1.5" stroke-linecap="round" stroke-linejoin="round"/>
</svg>
