<svg width="80" height="80" viewBox="0 0 80 80" fill="none" xmlns="http://www.w3.org/2000/svg">
<path d="M29.9997 56.6666V36.6666L23.333 43.3333" stroke="#133C8B" stroke-width="1.5" stroke-linecap="round" stroke-linejoin="round"/>
<path d="M29.9997 56.6666V36.6666L23.333 43.3333" stroke="white" stroke-opacity="0.6" stroke-width="1.5" stroke-linecap="round" stroke-linejoin="round"/>
<path d="M30 36.6666L36.6667 43.3333" stroke="#133C8B" stroke-width="1.5" stroke-linecap="round" stroke-linejoin="round"/>
<path d="M30 36.6666L36.6667 43.3333" stroke="white" stroke-opacity="0.6" stroke-width="1.5" stroke-linecap="round" stroke-linejoin="round"/>
<path d="M73.3337 33.3333V50C73.3337 66.6666 66.667 73.3333 50.0003 73.3333H30.0003C13.3337 73.3333 6.66699 66.6666 6.66699 50V30C6.66699 13.3333 13.3337 6.66663 30.0003 6.66663H46.667" stroke="#133C8B" stroke-width="1.5" stroke-linecap="round" stroke-linejoin="round"/>
<path d="M73.3337 33.3333V50C73.3337 66.6666 66.667 73.3333 50.0003 73.3333H30.0003C13.3337 73.3333 6.66699 66.6666 6.66699 50V30C6.66699 13.3333 13.3337 6.66663 30.0003 6.66663H46.667" stroke="white" stroke-opacity="0.6" stroke-width="1.5" stroke-linecap="round" stroke-linejoin="round"/>
<path d="M73.3337 33.3333H60.0003C50.0003 33.3333 46.667 30 46.667 20V6.66663L73.3337 33.3333Z" stroke="#133C8B" stroke-width="1.5" stroke-linecap="round" stroke-linejoin="round"/>
<path d="M73.3337 33.3333H60.0003C50.0003 33.3333 46.667 30 46.667 20V6.66663L73.3337 33.3333Z" stroke="white" stroke-opacity="0.6" stroke-width="1.5" stroke-linecap="round" stroke-linejoin="round"/>
</svg>
