<svg width="194" height="195" viewBox="0 0 194 195" fill="none" xmlns="http://www.w3.org/2000/svg">
<g clip-path="url(#clip0_2_186)">
<path d="M18.6562 164.27L16.9476 157.517C13.9182 156.231 10.8188 155.116 7.66418 154.179L7.44852 157.318L6.5739 153.86C2.6616 152.739 0 152.246 0 152.246C0 152.246 3.59429 165.947 11.1355 176.421L19.9217 177.968L13.096 178.954C14.0446 180.098 15.064 181.181 16.1483 182.197C27.1174 192.4 39.3351 197.082 43.437 192.653C47.5389 188.224 41.9719 176.362 31.0028 166.16C27.6023 162.996 23.3306 160.458 19.0544 158.46L18.6562 164.27Z" fill="#F2F2F2"/>
<path d="M34.9049 156.935L36.9255 150.269C34.996 147.599 32.9178 145.039 30.7006 142.603L28.8972 145.178L29.9318 141.765C27.1602 138.78 25.1362 136.979 25.1362 136.979C25.1362 136.979 21.1474 150.57 22.1996 163.442L28.9233 169.318L22.5702 166.626C22.7925 168.097 23.1069 169.552 23.5115 170.984C27.6387 185.401 35.6829 195.737 41.4785 194.071C47.2742 192.404 48.627 179.366 44.4998 164.949C43.2205 160.48 40.8727 156.094 38.2429 152.169L34.9049 156.935Z" fill="#F2F2F2"/>
<path d="M135.372 46.1956H134.307V16.9356C134.307 14.7116 133.869 12.5093 133.02 10.4546C132.171 8.3999 130.926 6.53293 129.357 4.96032C127.788 3.3877 125.925 2.14024 123.874 1.28914C121.824 0.43805 119.627 0 117.407 0H55.5473C51.0654 0 46.767 1.78428 43.5978 4.96032C40.4286 8.13636 38.6482 12.444 38.6482 16.9356V177.461C38.6482 179.685 39.0853 181.887 39.9346 183.942C40.7838 185.997 42.0286 187.864 43.5978 189.436C45.1671 191.009 47.03 192.257 49.0803 193.108C51.1306 193.959 53.3281 194.397 55.5473 194.397H117.407C121.889 194.397 126.188 192.612 129.357 189.436C132.526 186.26 134.306 181.953 134.306 177.461V67.0235H135.372L135.372 46.1956Z" fill="#E6E6E6"/>
<path d="M118.089 4.40442H110.015C110.386 5.31683 110.528 6.30676 110.428 7.287C110.327 8.26724 109.988 9.2077 109.439 10.0255C108.891 10.8434 108.15 11.5134 107.282 11.9767C106.415 12.44 105.446 12.6824 104.463 12.6823H69.0242C68.0409 12.6823 67.0728 12.4399 66.2051 11.9766C65.3373 11.5132 64.5966 10.8431 64.0482 10.0253C63.4997 9.2075 63.1604 8.26707 63.0601 7.28687C62.9597 6.30667 63.1015 5.31679 63.4728 4.40442H55.931C52.584 4.40442 49.374 5.7369 47.0073 8.10874C44.6405 10.4806 43.3109 13.6975 43.3109 17.0518V177.344C43.3109 180.699 44.6405 183.915 47.0073 186.287C49.374 188.659 52.584 189.992 55.931 189.992H118.089C121.436 189.992 124.646 188.659 127.013 186.287C129.38 183.915 130.709 180.699 130.709 177.344V177.344V17.0515C130.709 13.6973 129.379 10.4804 127.013 8.10864C124.646 5.73686 121.436 4.40442 118.089 4.40442V4.40442Z" fill="white"/>
<path d="M79.0896 68.2568C79.0894 67.1364 79.3837 66.0357 79.9429 65.0654C80.5021 64.0952 81.3064 63.2897 82.2749 62.73C81.3069 62.1697 80.2087 61.8747 79.0908 61.8745C77.9729 61.8744 76.8746 62.1692 75.9064 62.7293C74.9382 63.2894 74.1342 64.0951 73.5752 65.0653C73.0162 66.0355 72.7219 67.1361 72.7219 68.2564C72.7219 69.3767 73.0162 70.4773 73.5752 71.4476C74.1342 72.4178 74.9382 73.2234 75.9064 73.7835C76.8746 74.3436 77.9729 74.6384 79.0908 74.6383C80.2087 74.6382 81.3069 74.3431 82.2749 73.7828C81.3065 73.2232 80.5022 72.4179 79.943 71.4478C79.3838 70.4777 79.0894 69.3771 79.0896 68.2568V68.2568Z" fill="#CCCCCC"/>
<path d="M87.0951 68.2568C87.0949 67.1364 87.3891 66.0356 87.9483 65.0654C88.5075 64.0952 89.3119 63.2897 90.2805 62.73C89.3124 62.1697 88.2142 61.8747 87.0963 61.8745C85.9784 61.8744 84.8801 62.1692 83.9119 62.7293C82.9437 63.2894 82.1397 64.0951 81.5807 65.0653C81.0217 66.0355 80.7274 67.1361 80.7274 68.2564C80.7274 69.3767 81.0217 70.4773 81.5807 71.4476C82.1397 72.4178 82.9437 73.2234 83.9119 73.7835C84.8801 74.3436 85.9784 74.6384 87.0963 74.6383C88.2142 74.6382 89.3124 74.3431 90.2805 73.7828C89.312 73.2232 88.5077 72.4179 87.9485 71.4478C87.3893 70.4777 87.0949 69.3771 87.0951 68.2568V68.2568Z" fill="#CCCCCC"/>
<path d="M94.9187 74.6384C98.4357 74.6384 101.287 71.7812 101.287 68.2566C101.287 64.732 98.4357 61.8747 94.9187 61.8747C91.4017 61.8747 88.5505 64.732 88.5505 68.2566C88.5505 71.7812 91.4017 74.6384 94.9187 74.6384Z" fill="#ED0677"/>
<path d="M105.562 88.1896H68.4466C68.0933 88.1892 67.7546 88.0484 67.5047 87.798C67.2549 87.5476 67.1143 87.2081 67.1139 86.854V49.6591C67.1143 49.3049 67.2549 48.9655 67.5047 48.7151C67.7546 48.4647 68.0933 48.3238 68.4466 48.3234H105.562C105.915 48.3238 106.254 48.4647 106.504 48.7151C106.753 48.9655 106.894 49.3049 106.894 49.6591V86.854C106.894 87.2081 106.753 87.5476 106.504 87.798C106.254 88.0484 105.915 88.1892 105.562 88.1896V88.1896ZM68.4466 48.858C68.2346 48.8582 68.0314 48.9427 67.8815 49.0929C67.7316 49.2432 67.6473 49.4469 67.647 49.6593V86.8543C67.6473 87.0667 67.7316 87.2704 67.8815 87.4207C68.0314 87.5709 68.2346 87.6554 68.4466 87.6556H105.562C105.774 87.6554 105.977 87.5709 106.127 87.4207C106.277 87.2704 106.361 87.0667 106.361 86.8543V49.6593C106.361 49.4469 106.277 49.2432 106.127 49.0929C105.977 48.9427 105.774 48.8582 105.562 48.858H68.4466Z" fill="#CCCCCC"/>
<path d="M113.849 116.701H56.9257V117.236H113.849V116.701Z" fill="#CCCCCC"/>
<path d="M58.7233 113.366C59.7161 113.366 60.521 112.559 60.521 111.564C60.521 110.569 59.7161 109.762 58.7233 109.762C57.7305 109.762 56.9257 110.569 56.9257 111.564C56.9257 112.559 57.7305 113.366 58.7233 113.366Z" fill="#ED0677"/>
<path d="M113.849 134.716H56.9257V135.25H113.849V134.716Z" fill="#CCCCCC"/>
<path d="M58.7233 131.38C59.7161 131.38 60.521 130.574 60.521 129.579C60.521 128.584 59.7161 127.777 58.7233 127.777C57.7305 127.777 56.9257 128.584 56.9257 129.579C56.9257 130.574 57.7305 131.38 58.7233 131.38Z" fill="#ED0677"/>
<path d="M112.807 155.23H94.818C94.5073 155.229 94.2094 155.105 93.9897 154.885C93.7699 154.665 93.6463 154.367 93.646 154.055V147.736C93.6463 147.425 93.7699 147.126 93.9897 146.906C94.2094 146.686 94.5073 146.562 94.818 146.562H112.807C113.118 146.562 113.416 146.686 113.636 146.906C113.855 147.126 113.979 147.425 113.979 147.736V154.055C113.979 154.367 113.855 154.665 113.636 154.885C113.416 155.105 113.118 155.229 112.807 155.23V155.23Z" fill="#ED0677"/>
<path d="M64.5871 113.366C65.5799 113.366 66.3848 112.559 66.3848 111.564C66.3848 110.569 65.5799 109.762 64.5871 109.762C63.5943 109.762 62.7894 110.569 62.7894 111.564C62.7894 112.559 63.5943 113.366 64.5871 113.366Z" fill="#ED0677"/>
<path d="M70.4512 113.366C71.4441 113.366 72.2489 112.559 72.2489 111.564C72.2489 110.569 71.4441 109.762 70.4512 109.762C69.4584 109.762 68.6536 110.569 68.6536 111.564C68.6536 112.559 69.4584 113.366 70.4512 113.366Z" fill="#ED0677"/>
<path d="M64.5871 131.38C65.5799 131.38 66.3848 130.574 66.3848 129.579C66.3848 128.584 65.5799 127.777 64.5871 127.777C63.5943 127.777 62.7894 128.584 62.7894 129.579C62.7894 130.574 63.5943 131.38 64.5871 131.38Z" fill="#ED0677"/>
<path d="M70.4512 131.38C71.4441 131.38 72.2489 130.574 72.2489 129.579C72.2489 128.584 71.4441 127.777 70.4512 127.777C69.4584 127.777 68.6536 128.584 68.6536 129.579C68.6536 130.574 69.4584 131.38 70.4512 131.38Z" fill="#ED0677"/>
<path d="M193.276 195H6.27183C5.87151 195 5.54724 194.857 5.54724 194.682C5.54724 194.507 5.87151 194.364 6.27183 194.364H193.276C193.676 194.364 194 194.506 194 194.682C194 194.858 193.676 195 193.276 195Z" fill="#3F3D56"/>
<path d="M147.074 127.758C147.201 127.816 147.324 127.885 147.441 127.963L159.123 122.967L159.54 119.883L164.208 119.854L163.932 126.927L148.513 131.014C148.481 131.121 148.442 131.226 148.397 131.329C148.174 131.806 147.815 132.206 147.366 132.479C146.917 132.752 146.397 132.886 145.873 132.865C145.348 132.843 144.841 132.666 144.416 132.357C143.991 132.047 143.667 131.619 143.484 131.125C143.301 130.632 143.268 130.095 143.388 129.583C143.509 129.07 143.778 128.605 144.161 128.245C144.545 127.885 145.026 127.647 145.544 127.56C146.062 127.474 146.594 127.542 147.074 127.758V127.758Z" fill="#FFB8B8"/>
<path d="M165.905 191.853H162.712L161.193 179.51L165.906 179.51L165.905 191.853Z" fill="#FFB8B8"/>
<path d="M160.431 190.939H166.589V194.825H156.554C156.554 193.794 156.962 192.806 157.689 192.077C158.417 191.348 159.403 190.939 160.431 190.939Z" fill="#2F2E41"/>
<path d="M178.324 190.949L175.146 191.263L172.427 179.129L177.117 178.666L178.324 190.949Z" fill="#FFB8B8"/>
<path d="M172.787 190.577L178.915 189.972L179.295 193.839L169.308 194.825C169.258 194.317 169.309 193.804 169.456 193.316C169.604 192.828 169.847 192.373 170.17 191.979C170.493 191.584 170.89 191.257 171.339 191.017C171.788 190.776 172.28 190.627 172.787 190.577Z" fill="#2F2E41"/>
<path d="M166.794 106.791C170.327 106.791 173.191 103.921 173.191 100.38C173.191 96.8398 170.327 93.9695 166.794 93.9695C163.261 93.9695 160.397 96.8398 160.397 100.38C160.397 103.921 163.261 106.791 166.794 106.791Z" fill="#FFB8B8"/>
<path d="M161.999 189.357C161.724 189.358 161.458 189.261 161.248 189.085C161.038 188.908 160.896 188.663 160.849 188.392C159.196 179.197 153.793 149.134 153.664 148.301C153.661 148.282 153.66 148.262 153.66 148.243V146.001C153.66 145.92 153.685 145.84 153.733 145.774L154.447 144.772C154.481 144.724 154.525 144.684 154.577 144.656C154.628 144.628 154.686 144.611 154.744 144.609C158.813 144.418 172.139 143.857 172.783 144.663C173.429 145.474 173.201 147.928 173.148 148.412L173.151 148.462L179.138 186.83C179.184 187.136 179.109 187.449 178.928 187.699C178.747 187.95 178.475 188.12 178.17 188.171L174.431 188.788C174.152 188.833 173.867 188.776 173.627 188.628C173.387 188.48 173.207 188.25 173.122 187.981C171.965 184.277 168.087 171.819 166.743 166.999C166.735 166.968 166.716 166.942 166.689 166.924C166.663 166.907 166.631 166.9 166.6 166.904C166.569 166.909 166.54 166.924 166.519 166.948C166.499 166.972 166.488 167.003 166.488 167.035C166.555 171.63 166.718 183.354 166.774 187.404L166.78 187.84C166.782 188.135 166.674 188.421 166.477 188.64C166.279 188.859 166.007 188.996 165.714 189.024L162.108 189.352C162.071 189.356 162.035 189.357 161.999 189.357Z" fill="#2F2E41"/>
<path d="M162.734 109.312C161.618 109.977 160.95 111.199 160.566 112.443C159.857 114.745 159.429 117.126 159.294 119.532L158.889 126.736L153.874 145.835C158.221 149.521 160.728 148.683 166.579 145.668C172.43 142.653 173.099 146.673 173.099 146.673L174.269 130.423L175.941 112.665C175.565 112.212 175.141 111.803 174.674 111.445C173.129 110.241 171.331 109.404 169.417 108.997C167.502 108.591 165.52 108.625 163.62 109.097L162.734 109.312Z" fill="#ED0677"/>
<path d="M161.105 131.615C161.24 131.666 161.371 131.727 161.496 131.799L173.047 126.005L173.238 122.866L178.003 122.537L178.258 129.692L162.822 134.808C162.696 135.35 162.409 135.84 161.998 136.214C161.587 136.588 161.072 136.828 160.522 136.901C159.971 136.975 159.412 136.879 158.917 136.626C158.423 136.373 158.017 135.975 157.754 135.486C157.49 134.996 157.382 134.437 157.443 133.885C157.504 133.332 157.731 132.81 158.095 132.39C158.459 131.97 158.942 131.671 159.48 131.532C160.017 131.394 160.584 131.423 161.105 131.615Z" fill="#FFB8B8"/>
<path d="M175.857 112.746C178.699 113.752 179.199 124.642 179.199 124.642C175.856 122.799 171.844 125.815 171.844 125.815C171.844 125.815 171.008 122.967 170.005 119.281C169.702 118.244 169.666 117.148 169.9 116.093C170.133 115.039 170.63 114.06 171.342 113.25C171.342 113.25 173.015 111.741 175.857 112.746Z" fill="#ED0677"/>
<path d="M172.53 102.076C171.733 101.437 170.646 102.598 170.646 102.598L170.008 96.8471C170.008 96.8471 166.023 97.3256 163.472 96.6875C160.922 96.0494 160.523 99.0041 160.523 99.0041C160.392 97.8106 160.365 96.6078 160.444 95.4096C160.603 93.9718 162.675 92.5341 166.342 91.5755C170.008 90.6168 171.921 94.7706 171.921 94.7706C174.472 96.0484 173.327 102.715 172.53 102.076Z" fill="#2F2E41"/>
</g>
<defs>
<clipPath id="clip0_2_186">
<rect width="194" height="195" fill="white"/>
</clipPath>
</defs>
</svg>
